# File created by Blade
# Date/Time:  Fri Jan 16 17:25:32 2015
#---------------------------------------------------------
:version 1.10
:name HOM
:units
  mass 1.0
  length 1.000000
  angle deg
:documentation
     Acclaim Skeleton File
:root
   axis xyz
   order TX TY TZ RX RY RZ
   position 0.000000 0.000000 0.000000
   orientation 0 0 0
:bonedata
   begin
      id 1
      name Spine_dum
      direction 0.000000 1.000000 0.000000
      length 7.170412
      axis 0.0 0.0 0.0 xyz
   end
   begin
      id 2
      name LeftUpLeg_dum
      direction 1.000000 0.000000 0.000000
      length 4.318350
      axis 0.0 0.0 0.0 xyz
   end
   begin
      id 3
      name RightUpLeg_dum
      direction -1.000000 0.000000 0.000000
      length 4.318350
      axis 0.0 0.0 0.0 xyz
   end
   begin
      id 4
      name Spine
      direction 0.000000 1.000000 0.000000
      length 0.000000
      axis 0.0 0.0 0.0 xyz
      dof rx ry rz
   end
   begin
      id 5
      name Spine_dum1
      direction 0.000000 1.000000 0.000000
      length 14.276153
      axis 0.0 0.0 0.0 xyz
   end
   begin
      id 6
      name Spine_dum2
      direction 0.000000 1.000000 0.000000
      length 10.718243
      axis 0.0 0.0 0.0 xyz
   end
   begin
      id 7
      name Spine_dum3
      direction 0.000000 1.000000 0.000000
      length 10.718243
      axis 0.0 0.0 0.0 xyz
   end
   begin
      id 8
      name Head
      direction 0.000000 1.000000 0.000000
      length 4.527550
      axis 0.0 0.0 0.0 xyz
      dof rx ry rz
   end
   begin
      id 9
      name LeftShoulder
      direction 1.000000 0.000000 0.000000
      length 7.058872
      axis 0.0 0.0 -90.0 xyz
      dof rx ry rz
   end
   begin
      id 10
      name LeftArm
      direction 1.000000 0.000000 0.000000
      length 10.955525
      axis 0.0 0.0 -90.0 xyz
      dof rx ry rz
   end
   begin
      id 11
      name LeftForeArm
      direction 1.000000 0.000000 0.000000
      length 8.193716
      axis 0.0 0.0 -90.0 xyz
      dof ry rz rx
   end
   begin
      id 12
      name LeftHand
      direction 0.000000 0.000000 0.000000
      length 0.000000
      axis 0.0 0.0 -90.0 xyz
      dof rx ry rz
   end
   begin
      id 13
      name LeftHand_dum1
      direction 0.000000 0.000000 0.000000
      length 0.000000
      axis 0.0 0.0 -90.0 xyz
   end
   begin
      id 14
      name LeftHand_dum2
      direction 1.000000 0.000000 0.000000
      length 3.937000
      axis 0.0 0.0 -90.0 xyz
   end
   begin
      id 15
      name LeftHandThumb1
      direction 0.000000 0.000000 1.000000
      length 3.937000
      axis 0.0 0.0 -90.0 xyz
      dof rx rz ry
   end
   begin
      id 16
      name RightShoulder
      direction -1.000000 0.000000 0.000000
      length 7.058872
      axis 0.0 0.0 90.0 xyz
      dof rx ry rz
   end
   begin
      id 17
      name RightArm
      direction -1.000000 0.000000 0.000000
      length 10.955525
      axis 0.0 0.0 90.0 xyz
      dof rx ry rz
   end
   begin
      id 18
      name RightForeArm
      direction -1.000000 0.000000 0.000000
      length 8.193716
      axis 0.0 0.0 90.0 xyz
      dof ry rz rx
   end
   begin
      id 19
      name RightHand
      direction 0.000000 0.000000 0.000000
      length 0.000000
      axis 0.0 0.0 90.0 xyz
      dof rx ry rz
   end
   begin
      id 20
      name RightHand_dum1
      direction 0.000000 0.000000 0.000000
      length 0.000000
      axis 0.0 0.0 90.0 xyz
   end
   begin
      id 21
      name RightHand_dum2
      direction -1.000000 0.000000 0.000000
      length 3.937000
      axis 0.0 0.0 90.0 xyz
   end
   begin
      id 22
      name RightHandThumb1
      direction 0.000000 0.000000 1.000000
      length 3.937000
      axis 0.0 0.0 90.0 xyz
      dof rx rz ry
   end
   begin
      id 23
      name LeftUpLeg
      direction 0.000000 -1.000000 0.000000
      length 17.323638
      axis 0.0 0.0 0.0 xyz
      dof rx ry rz
   end
   begin
      id 24
      name LeftLeg
      direction 0.000000 -1.000000 0.000000
      length 16.270368
      axis 0.0 0.0 0.0 xyz
      dof rx ry rz
   end
   begin
      id 25
      name LeftFoot
      direction 0.000000 -0.258819 0.965926
      length 4.922846
      axis 15.0 0.0 0.0 xyz
      dof rx ry rz
   end
   begin
      id 26
      name LeftToeBase
      direction 0.000000 0.000000 1.000000
      length 2.952750
      axis 0.0 0.0 0.0 xyz
      dof rx ry rz
   end
   begin
      id 27
      name RightUpLeg
      direction 0.000000 -1.000000 0.000000
      length 17.323638
      axis 0.0 0.0 0.0 xyz
      dof rx ry rz
   end
   begin
      id 28
      name RightLeg
      direction 0.000000 -1.000000 0.000000
      length 16.270368
      axis 0.0 0.0 0.0 xyz
      dof rx ry rz
   end
   begin
      id 29
      name RightFoot
      direction 0.000000 -0.258819 0.965926
      length 4.922846
      axis 15.0 0.0 0.0 xyz
      dof rx ry rz
   end
   begin
      id 30
      name RightToeBase
      direction 0.000000 0.000000 1.000000
      length 2.952750
      axis 0.0 0.0 0.0 xyz
      dof rx ry rz
   end
:hierarchy
   begin
      root Spine_dum LeftUpLeg_dum RightUpLeg_dum
      Spine_dum Spine
      LeftUpLeg_dum LeftUpLeg
      RightUpLeg_dum RightUpLeg
      Spine Spine_dum1 Spine_dum2 Spine_dum3
      Spine_dum1 Head
      Spine_dum2 LeftShoulder
      Spine_dum3 RightShoulder
      LeftShoulder LeftArm
      LeftArm LeftForeArm
      LeftForeArm LeftHand
      LeftHand LeftHand_dum1 LeftHand_dum2
      LeftHand_dum1 LeftHandThumb1
      RightShoulder RightArm
      RightArm RightForeArm
      RightForeArm RightHand
      RightHand RightHand_dum1 RightHand_dum2
      RightHand_dum1 RightHandThumb1
      LeftUpLeg LeftLeg
      LeftLeg LeftFoot
      LeftFoot LeftToeBase
      RightUpLeg RightLeg
      RightLeg RightFoot
      RightFoot RightToeBase
   end

# File created by Blade
# Date/Time:  Fri Jan 16 17:25:22 2015
# Frame Rate: 120.000 fps
#------------------------------------------------------
:FULLY-SPECIFIED
:DEGREES
1050
root -5.814074 35.227646 -10.568482 -2.949390 -9.280428 -6.250152
Spine 2.931135 1.116828 9.658012
Head 2.758153 9.922212 -6.672227
LeftShoulder -18.797825 16.192334 -16.952461
LeftArm 27.459677 19.078536 -64.373404
LeftForeArm 12.769837 -0.000000 15.027450
LeftHand 0.533118 0.000000 -5.616885
LeftHandThumb1 -26.253704 0.000000 33.147579
RightShoulder -1.135089 -3.965149 2.536917
RightArm 11.407505 -36.300394 65.742368
RightForeArm -26.831572 -0.000000 23.447074
RightHand 1.902101 0.000000 7.295761
RightHandThumb1 -24.326973 -0.000000 -32.862282
LeftUpLeg 13.102577 16.939088 8.586590
LeftLeg -9.117341 -0.000000 0.000000
LeftFoot -14.994789 29.447281 -7.347449
LeftToeBase 23.216877 -0.000000 -0.000000
RightUpLeg 8.471294 -4.398938 3.043595
RightLeg -4.334516 -0.000000 0.000000
RightFoot -3.674799 -22.581926 5.344362
RightToeBase 13.751242 -0.000000 -0.000000
1051
root -5.816314 35.226732 -10.557500 -2.974366 -9.287429 -6.250884
Spine 2.907052 1.128983 9.654276
Head 2.831906 9.819478 -6.640707
LeftShoulder -18.810654 16.196672 -16.959190
LeftArm 27.431509 19.102016 -64.374860
LeftForeArm 12.552223 -0.000000 15.062238
LeftHand 0.649630 -0.000000 -5.220241
LeftHandThumb1 -26.253704 0.000000 33.147579
RightShoulder -1.126002 -3.943981 2.558354
RightArm 11.321356 -36.265162 65.800741
RightForeArm -26.838563 -0.000000 23.495158
RightHand 1.903207 0.000000 7.345205
RightHandThumb1 -24.326973 -0.000000 -32.862282
LeftUpLeg 13.160912 16.954108 8.607089
LeftLeg -9.136637 -0.000000 0.000000
LeftFoot -14.996622 29.426874 -7.354101
LeftToeBase 23.222487 -0.000000 -0.000000
RightUpLeg 8.512648 -4.389191 3.046068
RightLeg -4.330934 -0.000000 0.000000
RightFoot -3.694490 -22.605126 5.336799
RightToeBase 13.743973 -0.000000 -0.000000
1052
root -5.816046 35.225638 -10.549224 -2.988107 -9.277356 -6.249880
Spine 2.875313 1.139329 9.657167
Head 2.908008 9.686386 -6.622320
LeftShoulder -18.820595 16.203621 -16.963821
LeftArm 27.407098 19.117234 -64.410174
LeftForeArm 12.543752 -0.000000 15.076322
LeftHand 0.623018 0.000000 -5.521509
LeftHandThumb1 -26.253704 0.000000 33.147579
RightShoulder -1.150083 -3.955982 2.587601
RightArm 11.314853 -36.275468 65.785195
RightForeArm -26.785397 -0.000000 23.552864
RightHand 1.922902 -0.000000 7.372235
RightHandThumb1 -24.326973 -0.000000 -32.862282
LeftUpLeg 13.185038 16.963430 8.615038
LeftLeg -9.133613 -0.000000 0.000000
LeftFoot -15.002900 29.410788 -7.342743
LeftToeBase 23.221053 -0.000000 -0.000000
RightUpLeg 8.538067 -4.378870 3.045688
RightLeg -4.327634 -0.000000 0.000000
RightFoot -3.717624 -22.637209 5.346629
RightToeBase 13.763387 -0.000000 -0.000000
1053
root -5.815279 35.224915 -10.539445 -3.019833 -9.269342 -6.248766
Spine 2.861830 1.153635 9.669693
Head 3.001223 9.553244 -6.610616
LeftShoulder -18.814380 16.217905 -16.982410
LeftArm 27.382816 19.144093 -64.423103
LeftForeArm 12.469326 -0.000000 15.125530
LeftHand 0.575886 -0.000000 -5.620420
LeftHandThumb1 -26.253704 0.000000 33.147579
RightShoulder -1.190149 -3.973772 2.607069
RightArm 11.327283 -36.259304 65.781349
RightForeArm -26.784214 -0.000000 23.589019
RightHand 1.965491 -0.000000 7.412206
RightHandThumb1 -24.326973 -0.000000 -32.862282
LeftUpLeg 13.232186 16.965381 8.625576
LeftLeg -9.133726 -0.000000 0.000000
LeftFoot -15.015375 29.399545 -7.357974
LeftToeBase 23.217597 -0.000000 -0.000000
RightUpLeg 8.578778 -4.381421 3.041408
RightLeg -4.315229 -0.000000 0.000000
RightFoot -3.722585 -22.658556 5.331461
RightToeBase 13.726189 -0.000000 -0.000000
1054
root -5.815229 35.224384 -10.529708 -3.047280 -9.270141 -6.245559
Spine 2.840847 1.147313 9.675362
Head 3.107889 9.448012 -6.589988
LeftShoulder -18.846398 16.223205 -17.011536
LeftArm 27.360311 19.147277 -64.450774
LeftForeArm 12.462584 -0.000000 15.158389
LeftHand 0.602124 0.000000 -5.702798
LeftHandThumb1 -26.253704 0.000000 33.147579
RightShoulder -1.194474 -3.957091 2.623871
RightArm 11.285306 -36.262689 65.802518
RightForeArm -26.794832 -0.000000 23.646499
RightHand 2.014808 -0.000000 7.422921
RightHandThumb1 -24.326973 -0.000000 -32.862282
LeftUpLeg 13.279242 16.956048 8.633089
LeftLeg -9.142884 -0.000000 0.000000
LeftFoot -15.010581 29.383098 -7.383800
LeftToeBase 23.137278 -0.000000 -0.000000
RightUpLeg 8.619616 -4.381511 3.034382
RightLeg -4.314945 -0.000000 0.000000
RightFoot -3.740361 -22.676433 5.303436
RightToeBase 13.729058 -0.000000 -0.000000
1055
root -5.815029 35.223925 -10.522166 -3.056537 -9.265989 -6.245176
Spine 2.791073 1.146050 9.679344
Head 3.250888 9.322633 -6.549770
LeftShoulder -18.869479 16.237601 -17.029874
LeftArm 27.347922 19.189112 -64.464843
LeftForeArm 12.423538 0.000000 15.182647
LeftHand 0.645023 -0.000000 -5.880917
LeftHandThumb1 -26.253704 0.000000 33.147579
RightShoulder -1.216861 -3.996240 2.651109
RightArm 11.309583 -36.222779 65.791218
RightForeArm -26.811140 -0.000000 23.672356
RightHand 2.052756 -0.000000 7.412926
RightHandThumb1 -24.326973 -0.000000 -32.862282
LeftUpLeg 13.293231 16.940610 8.630308
LeftLeg -9.126159 -0.000000 0.000000
LeftFoot -15.043476 29.421652 -7.366816
LeftToeBase 23.183825 -0.000000 -0.000000
RightUpLeg 8.640201 -4.365532 3.028415
RightLeg -4.309027 -0.000000 0.000000
RightFoot -3.759149 -22.674740 5.302755
RightToeBase 13.755630 -0.000000 -0.000000
1056
root -5.814578 35.223968 -10.512758 -3.080855 -9.264904 -6.244544
Spine 2.757178 1.137703 9.689889
Head 3.403571 9.177457 -6.534902
LeftShoulder -18.894227 16.244577 -17.062483
LeftArm 27.318300 19.223583 -64.487011
LeftForeArm 12.329025 -0.000000 15.215696
LeftHand 0.708791 0.000000 -6.221375
LeftHandThumb1 -26.253704 0.000000 33.147579
RightShoulder -1.245020 -4.012761 2.663805
RightArm 11.333493 -36.276713 65.762276
RightForeArm -26.721863 -0.000000 23.705628
RightHand 2.022851 -0.000000 7.503413
RightHandThumb1 -24.326973 -0.000000 -32.862282
LeftUpLeg 13.336351 16.944187 8.642525
LeftLeg -9.131948 -0.000000 0.000000
LeftFoot -15.053026 29.387168 -7.371627
LeftToeBase 23.202019 -0.000000 -0.000000
RightUpLeg 8.679640 -4.350763 3.024747
RightLeg -4.306136 -0.000000 0.000000
RightFoot -3.775553 -22.698070 5.328507
RightToeBase 13.723221 -0.000000 -0.000000
1057
root -5.812826 35.223224 -10.504401 -3.091919 -9.267087 -6.241523
Spine 2.704462 1.145853 9.699486
Head 3.574047 9.033901 -6.510847
LeftShoulder -18.921634 16.268891 -17.100008
LeftArm 27.308781 19.237395 -64.502834
LeftForeArm 12.504627 -0.000000 15.262074
LeftHand 0.659063 -0.000000 -5.844431
LeftHandThumb1 -26.253704 0.000000 33.147579
RightShoulder -1.267029 -4.004964 2.681669
RightArm 11.314084 -36.288672 65.767574
RightForeArm -26.755470 -0.000000 23.710020
RightHand 2.126394 -0.000000 7.427918
RightHandThumb1 -24.326973 -0.000000 -32.862282
LeftUpLeg 13.361531 16.947168 8.642571
LeftLeg -9.126962 -0.000000 0.000000
LeftFoot -15.061937 29.379060 -7.408076
LeftToeBase 23.131544 -0.000000 -0.000000
RightUpLeg 8.701544 -4.342457 3.015408
RightLeg -4.300146 -0.000000 0.000000
RightFoot -3.800506 -22.699456 5.337843
RightToeBase 13.731442 -0.000000 -0.000000
1058
root -5.811719 35.222261 -10.495275 -3.111523 -9.267514 -6.245766
Spine 2.655809 1.151152 9.719293
Head 3.775741 8.890235 -6.488262
LeftShoulder -18.921910 16.269864 -17.119920
LeftArm 27.252045 19.267517 -64.544777
LeftForeArm 12.546794 0.000000 15.306297
LeftHand 0.725965 -0.000000 -5.752347
LeftHandThumb1 -26.253704 0.000000 33.147579
RightShoulder -1.305281 -4.170263 2.684809
RightArm 11.512467 -36.329707 65.651087
RightForeArm -26.637433 0.000000 23.718699
RightHand 1.937421 -0.000000 7.260326
RightHandThumb1 -24.326973 -0.000000 -32.862282
LeftUpLeg 13.403457 16.957696 8.654632
LeftLeg -9.137153 -0.000000 0.000000
LeftFoot -15.085566 29.391553 -7.381972
LeftToeBase 23.224532 -0.000000 -0.000000
RightUpLeg 8.733018 -4.323420 3.019299
RightLeg -4.295339 -0.000000 0.000000
RightFoot -3.806382 -22.730818 5.335195
RightToeBase 13.728624 -0.000000 -0.000000
